HIERARCHY
ROOT root
{
	OFFSET 0.000000 0.000000 0.000000
	CHANNELS 6 Xposition Yposition Zposition Zrotation Yrotation Xrotation
	JOINT lhip
	{
		OFFSET 0.058581 -0.082280 -0.017664
		CHANNELS 3 Zrotation Yrotation Xrotation
		JOINT lknee
		{
			OFFSET 0.043451 -0.386469 0.008037
			CHANNELS 3 Zrotation Yrotation Xrotation
			JOINT lankle
			{
				OFFSET -0.014790 -0.426874 -0.037428
				CHANNELS 3 Zrotation Yrotation Xrotation
				JOINT ltoe
				{
					OFFSET 0.041054 -0.060286 0.122042
					CHANNELS 3 Zrotation Yrotation Xrotation
					End Site
					{
						OFFSET 0.000000 0.000000 0.000000
					}
				}
			}
		}
	}
	JOINT rhip
	{
		OFFSET -0.060310 -0.090513 -0.013543
		CHANNELS 3 Zrotation Yrotation Xrotation
		JOINT rknee
		{
			OFFSET -0.043257 -0.383688 -0.004843
			CHANNELS 3 Zrotation Yrotation Xrotation
			JOINT rankle
			{
				OFFSET 0.019056 -0.420046 -0.034562
				CHANNELS 3 Zrotation Yrotation Xrotation
				JOINT rtoe
				{
					OFFSET -0.034840 -0.062106 0.130323
					CHANNELS 3 Zrotation Yrotation Xrotation
					End Site
					{
						OFFSET 0.000000 0.000000 0.000000
					}
				}
			}
		}
	}
	JOINT lowerback
	{
		OFFSET 0.004439 0.124404 -0.038385
		CHANNELS 3 Zrotation Yrotation Xrotation
		JOINT upperback
		{
			OFFSET 0.004488 0.137956 0.026820
			CHANNELS 3 Zrotation Yrotation Xrotation
			JOINT chest
			{
				OFFSET -0.002265 0.056032 0.002855
				CHANNELS 3 Zrotation Yrotation Xrotation
				JOINT lowerneck
				{
					OFFSET -0.013390 0.211636 -0.033468
					CHANNELS 3 Zrotation Yrotation Xrotation
					JOINT upperneck
					{
						OFFSET 0.010113 0.088937 0.050410
						CHANNELS 3 Zrotation Yrotation Xrotation
						End Site
						{
							OFFSET 0.000000 0.000000 0.000000
						}
					}
				}
				JOINT lclavicle
				{
					OFFSET 0.071702 0.114000 -0.018898
					CHANNELS 3 Zrotation Yrotation Xrotation
					JOINT lshoulder
					{
						OFFSET 0.122921 0.045205 -0.019046
						CHANNELS 3 Zrotation Yrotation Xrotation
						JOINT lelbow
						{
							OFFSET 0.255332 -0.015649 -0.022946
							CHANNELS 3 Zrotation Yrotation Xrotation
							JOINT lwrist
							{
								OFFSET 0.265709 0.012698 -0.007375
								CHANNELS 3 Zrotation Yrotation Xrotation
								End Site
								{
									OFFSET 0.000000 0.000000 0.000000
								}
							}
						}
					}
				}
				JOINT rclavicle
				{
					OFFSET -0.082954 0.112472 -0.023707
					CHANNELS 3 Zrotation Yrotation Xrotation
					JOINT rshoulder
					{
						OFFSET -0.113228 0.046853 -0.008472
						CHANNELS 3 Zrotation Yrotation Xrotation
						JOINT relbow
						{
							OFFSET -0.260127 -0.014369 -0.031269
							CHANNELS 3 Zrotation Yrotation Xrotation
							JOINT rwrist
							{
								OFFSET -0.269108 0.006794 -0.006027
								CHANNELS 3 Zrotation Yrotation Xrotation
								End Site
								{
									OFFSET 0.000000 0.000000 0.000000
								}
							}
						}
					}
				}
			}
		}
	}
}
MOTION
Frames: 11
Frame Time: 0.033333
0.424611 2.076330 0.878045 169.220212 12.410601 101.090890 17.281738 5.567227 -49.336360 2.887748 19.162599 65.365837 3.522042 12.935241 -30.871500 0.000000 -0.000000 0.000000 -14.632951 -6.634065 -32.853430 -2.524438 -7.503946 42.671984 12.411744 -2.161652 -15.847368 0.000000 -0.000000 0.000000 -2.472190 8.427593 44.520532 -2.013621 -3.773089 -5.557417 2.222391 -3.481310 -4.006506 -8.039976 10.382698 -30.252784 5.528582 4.547703 -10.696953 -24.810539 -34.157436 7.475067 -47.761899 -23.134329 26.922977 -24.511420 -42.427711 51.698808 -6.822650 -19.363874 -4.819871 27.461722 28.359551 8.652906 43.818756 11.514718 3.342166 6.218457 1.464136 -25.850300 12.522871 17.906526 -36.870874 
0.420913 2.082184 0.885336 170.847212 12.066814 101.516131 15.925950 3.804611 -48.903938 2.996146 18.246651 63.434088 3.829233 13.840131 -30.134181 0.000000 -0.000000 0.000000 -14.183844 -7.088665 -33.297984 -1.556907 -7.574053 42.005707 12.434311 -2.805382 -15.933612 0.000000 -0.000000 0.000000 -1.781525 8.254141 45.037533 -1.286178 -5.057744 -5.823254 2.495116 -3.717019 -4.153139 -7.518715 9.737206 -31.570156 5.194025 4.585078 -10.218643 -24.453267 -33.747022 6.875075 -48.497643 -23.267617 27.355770 -24.109326 -41.736700 49.218270 -4.837507 -19.424384 -5.506786 26.279529 28.077905 7.676196 44.228613 11.608071 4.696725 6.244460 2.657173 -26.415010 12.501072 17.589674 -36.468042 
0.420686 2.088490 0.891710 170.991348 12.544641 101.981381 16.162762 3.867812 -47.953800 2.771629 18.308340 61.780677 3.847262 13.915594 -30.226744 0.000000 -0.000000 0.000000 -12.415136 -6.034427 -35.123987 -1.889096 -8.253830 42.370094 11.849040 -2.987076 -16.297592 0.000000 -0.000000 0.000000 -2.341379 7.525079 44.125966 -1.403276 -4.062579 -6.047838 2.903805 -3.752262 -4.207675 -7.212575 9.457915 -31.153738 5.757199 4.506548 -10.493072 -24.551077 -33.499379 7.029860 -48.106677 -22.206126 26.213563 -24.718986 -41.634526 48.276701 -3.532791 -19.455820 -9.809295 26.869009 28.514432 8.583421 43.884301 10.912698 4.823514 6.394916 5.076490 -23.909067 9.761701 18.062359 -39.632314 
0.417112 2.094573 0.898552 172.511693 11.792129 102.264344 14.354766 2.333356 -47.272353 2.659398 17.131404 59.737434 4.055530 14.657485 -29.550896 0.000000 -0.000000 0.000000 -12.035270 -6.656367 -36.123734 -1.451847 -9.019983 42.585022 11.901500 -3.528718 -16.448017 0.000000 -0.000000 0.000000 -1.461317 6.879183 44.633358 -1.041209 -4.762035 -6.601069 2.832108 -4.020060 -3.752700 -7.262275 8.561968 -31.641655 5.355904 4.863526 -10.436888 -24.714123 -33.460790 7.342070 -47.747099 -22.464690 26.244226 -24.051274 -41.668098 44.740504 -2.015519 -19.264754 -11.069945 25.316883 28.209610 7.729394 44.578146 10.566712 6.688934 6.237971 7.791968 -24.211512 8.939739 17.830623 -40.829570 
0.415871 2.103111 0.904158 173.322359 11.085413 102.324215 12.680120 2.253373 -46.223375 2.561107 16.089759 57.929604 4.322081 14.639774 -28.772854 0.000000 -0.000000 0.000000 -11.193589 -6.765056 -37.447681 -1.036439 -9.570259 43.078050 11.465770 -3.850201 -16.370973 0.000000 -0.000000 0.000000 -1.905189 5.529492 44.682840 -1.134450 -3.927860 -7.306796 3.175516 -3.986627 -3.339640 -7.413015 7.381425 -30.478591 5.055027 6.011374 -10.880945 -25.295320 -33.242623 8.386754 -47.158661 -22.580121 25.948247 -23.878004 -41.412673 40.608980 0.723359 -18.148275 -13.919462 24.292925 27.653853 7.545292 45.157794 9.793193 8.282521 6.346452 11.338005 -24.070521 6.636668 17.120545 -43.075853 
0.414189 2.110238 0.910728 174.008976 10.440681 102.426555 11.698224 2.163725 -44.940997 1.590949 15.732342 55.773585 4.538141 14.633784 -28.236274 0.000000 -0.000000 0.000000 -10.004157 -6.115439 -39.472101 -0.607297 -10.348107 43.933951 11.088995 -4.392513 -16.671789 0.000000 -0.000000 0.000000 -1.190953 4.625360 45.051570 -1.154572 -3.726215 -7.812578 3.178121 -4.412839 -2.895094 -8.238207 7.353819 -30.611642 4.152637 7.012080 -9.987443 -25.198316 -32.932483 8.230567 -46.989104 -22.069196 25.140054 -24.014472 -41.632361 36.066882 2.547564 -17.542846 -18.554342 23.394854 27.126688 7.076006 45.212430 9.166105 9.296992 6.430046 15.282705 -23.580091 5.134009 16.445260 -44.933566 
0.412031 2.118119 0.917134 174.969895 9.584395 102.675740 10.447532 2.362009 -43.741406 0.375510 15.207021 53.575943 4.593917 14.378833 -27.702011 0.000000 -0.000000 0.000000 -8.819428 -5.533992 -41.805969 -0.070175 -11.166670 44.725429 10.411927 -4.576615 -17.134676 0.000000 -0.000000 0.000000 -0.872883 2.906201 45.381754 -1.091070 -3.505268 -7.596884 3.503411 -4.292376 -3.427075 -9.396862 7.465258 -30.359101 2.839491 9.025962 -8.519900 -25.415162 -32.137908 7.881735 -47.047380 -21.028745 24.249757 -24.030718 -42.768637 35.093859 3.696177 -17.155120 -20.011092 22.332558 26.775011 7.168099 45.183174 9.031588 9.255571 6.828946 18.650631 -22.219582 5.462836 16.970633 -46.652611 
0.409772 2.126031 0.922853 175.940156 8.175825 102.356442 8.785992 2.723740 -41.939829 -1.231782 14.683129 51.385462 4.739887 13.924625 -27.078004 0.000000 -0.000000 0.000000 -8.090011 -4.584096 -43.601765 0.319042 -11.107680 45.330853 10.245942 -4.188951 -17.742369 0.000000 -0.000000 0.000000 0.305126 1.660292 46.827846 -1.221987 -3.605331 -8.912326 3.301468 -4.643550 -3.137033 -11.067251 7.458666 -28.886383 1.482431 10.870777 -6.890199 -25.176344 -31.709952 7.491746 -47.243503 -20.103347 23.977239 -24.418312 -44.658696 34.051839 7.049564 -16.034169 -21.811917 21.172286 26.577037 6.484112 45.723597 8.160750 9.974500 6.702488 22.483296 -21.261562 5.019889 17.044305 -48.725552 
0.407223 2.134028 0.926640 177.230203 6.169413 102.432464 6.799851 3.181101 -40.789569 -3.210559 14.546608 49.548818 4.818342 13.062008 -26.552839 0.000000 -0.000000 0.000000 -8.406395 -3.554613 -45.558672 0.992582 -10.394442 45.467327 10.431427 -3.420175 -17.922255 0.000000 -0.000000 0.000000 0.972477 -0.195406 47.210050 -1.346064 -3.182603 -9.343100 3.005606 -4.770889 -2.497253 -13.118280 7.761399 -27.922085 -0.765504 12.371055 -5.346350 -24.773051 -30.871160 6.759944 -47.605386 -20.132800 24.083147 -24.464073 -46.351393 32.801820 9.517313 -15.071931 -22.619977 20.103487 25.698454 5.502915 45.745441 8.339634 11.154237 7.014464 25.961504 -20.162462 3.976196 16.662691 -50.162699 
0.405104 2.141718 0.928128 178.825135 3.897781 102.540479 4.919255 4.335367 -40.301436 -5.567616 14.627207 49.167772 4.833783 10.976353 -25.520048 0.000000 -0.000000 0.000000 -8.942801 -2.938745 -47.349791 1.066529 -8.334576 45.939613 10.175998 -2.817850 -17.420950 0.000000 -0.000000 0.000000 1.633706 -2.503513 47.179251 -1.666965 -2.386255 -9.949418 2.447507 -4.681070 -1.298241 -15.437658 7.221666 -26.677172 -2.609673 13.711638 -3.874375 -24.150971 -30.616953 6.035948 -47.702737 -20.180086 23.822981 -24.601778 -47.776934 33.520565 10.112760 -14.362532 -21.763104 19.246657 25.422824 4.807650 45.617033 8.446543 11.273579 7.538492 28.433404 -19.174823 4.454566 17.098670 -50.803953 
0.403706 2.149388 0.927991 -179.127497 1.007999 102.240736 3.477083 5.842444 -40.544500 -8.236693 15.452003 51.280654 4.067421 6.878449 -22.957665 0.000000 -0.000000 0.000000 -10.405381 -3.059572 -47.765853 0.250161 -5.695039 46.951161 8.458246 -3.946196 -16.320043 0.000000 -0.000000 0.000000 2.484659 -4.479167 48.009831 -1.943945 -2.065809 -10.631277 1.842687 -4.684219 -0.734022 -17.914217 6.317053 -25.804876 -4.003637 14.920594 -1.760737 -23.278103 -30.125473 5.081880 -48.017447 -20.624673 23.718141 -25.846383 -48.634847 34.867075 11.129347 -14.263294 -21.853467 18.297108 24.887501 3.990055 45.683848 8.614833 11.643985 8.406069 30.023572 -19.327739 4.718056 17.712136 -50.999051 
